<?xml version="1.0" standalone="no"?>
<!DOCTYPE svg PUBLIC "-//W3C//DTD SVG 20010904//EN"
 "http://www.w3.org/TR/2001/REC-SVG-20010904/DTD/svg10.dtd">
<svg version="1.0" xmlns="http://www.w3.org/2000/svg"
 width="400.000000pt" height="400.000000pt" viewBox="0 0 400.000000 400.000000"
 preserveAspectRatio="xMidYMid meet">

<g transform="translate(0.000000,400.000000) scale(0.100000,-0.100000)"
fill="#000000" stroke="none">
<path d="M1475 3846 c-181 -51 -310 -141 -404 -281 -66 -100 -100 -195 -121
-342 0 -2 -8 -3 -17 -3 -9 0 -54 -18 -99 -40 -148 -71 -261 -209 -310 -375
-11 -38 -18 -97 -18 -162 l-1 -102 -45 -31 c-123 -88 -222 -219 -267 -354 -23
-71 -27 -97 -27 -211 0 -120 2 -137 30 -216 36 -101 103 -207 172 -271 l49
-46 6 -109 c6 -132 30 -205 99 -309 83 -124 226 -220 368 -247 48 -9 62 -16
65 -32 2 -11 9 -46 15 -78 7 -32 32 -100 58 -150 85 -172 253 -305 442 -354
96 -24 249 -22 321 6 79 30 135 74 172 133 27 44 33 48 42 33 5 -10 27 -39 47
-65 73 -94 227 -142 387 -120 164 22 281 80 397 196 68 67 89 96 127 175 46
96 67 165 67 217 0 35 11 45 65 62 105 33 226 128 295 233 62 95 92 200 94
329 l1 108 50 34 c71 47 174 161 212 231 75 144 101 314 69 465 -24 116 -93
245 -176 331 l-70 72 0 81 c0 166 -53 290 -174 412 -91 91 -166 134 -284 161
-64 15 -73 20 -78 43 -37 181 -86 280 -188 385 -80 81 -177 143 -281 177 -59
20 -90 23 -205 23 -107 0 -143 -4 -175 -18 -67 -30 -112 -67 -151 -123 -21
-30 -38 -54 -39 -54 -1 0 -16 22 -33 49 -36 55 -82 93 -150 124 -61 27 -259
35 -337 13z m290 -120 c84 -35 132 -108 157 -241 19 -102 19 -2887 0 -2990
-35 -189 -119 -265 -291 -265 -232 1 -441 146 -528 366 -25 62 -27 82 -28 199
0 124 1 133 29 188 32 63 105 137 160 163 l34 17 44 -36 c25 -20 69 -48 100
-62 46 -21 57 -31 62 -57 9 -44 52 -97 92 -114 l34 -14 0 -95 0 -95 -83 0
c-119 0 -118 1 -115 -145 l3 -120 30 0 30 0 3 92 3 93 92 0 c59 0 97 4 105 12
8 8 12 53 12 134 l0 123 40 22 c74 42 105 126 76 203 -42 110 -168 147 -263
77 l-38 -29 -59 31 c-107 56 -157 156 -141 281 15 114 13 139 -13 152 -54 27
-83 -9 -101 -128 -10 -59 -5 -123 14 -199 6 -24 1 -30 -44 -58 -118 -72 -202
-200 -225 -342 l-6 -37 -43 10 c-76 16 -166 66 -228 124 -201 192 -193 531 17
691 l35 26 37 -36 c85 -83 182 -92 182 -17 0 29 -19 49 -79 82 -67 37 -86 110
-54 208 17 54 13 73 -20 94 -10 7 -25 7 -44 0 -35 -12 -64 -84 -68 -168 -2
-57 -4 -60 -46 -91 -62 -45 -134 -127 -161 -185 -13 -27 -26 -49 -31 -50 -12
0 -99 123 -122 175 -65 147 -63 340 6 477 34 68 95 145 150 188 28 22 54 40
58 40 5 0 24 -26 44 -58 68 -110 178 -187 302 -212 33 -6 69 -14 80 -16 11 -2
29 -19 40 -36 11 -18 39 -43 63 -56 l42 -23 0 -99 c0 -80 3 -99 16 -104 9 -3
96 -6 194 -6 170 0 179 -1 185 -20 9 -30 53 -79 86 -95 37 -20 113 -19 156 2
119 56 115 243 -6 299 l-40 19 -3 175 -3 175 -80 5 -80 5 -3 112 c-3 108 -2
112 20 118 36 11 87 53 104 87 23 44 15 134 -15 176 -12 18 -40 41 -62 52
l-39 20 -2 162 c-3 137 -5 162 -20 171 -12 8 -21 7 -32 -2 -13 -11 -16 -40
-16 -172 l0 -159 -39 -20 c-37 -18 -75 -56 -84 -83 -6 -19 -108 18 -153 57
-71 61 -124 190 -124 303 0 247 193 482 443 539 76 17 198 12 252 -10z m766
-5 c82 -26 174 -84 240 -153 58 -62 122 -183 139 -264 18 -86 9 -238 -18 -297
-27 -60 -110 -149 -161 -172 l-39 -17 -54 40 c-29 22 -74 49 -99 60 -36 16
-47 27 -52 49 -10 47 -44 91 -87 113 l-40 20 0 95 0 95 95 0 c115 0 115 0 115
139 0 101 -10 131 -44 131 -27 0 -36 -26 -36 -107 l0 -83 -89 0 c-122 0 -121
1 -121 -156 0 -103 -2 -124 -15 -124 -28 0 -94 -70 -106 -112 -29 -109 53
-219 163 -218 31 0 93 25 130 52 14 10 24 9 52 -5 50 -24 114 -84 138 -131 26
-51 34 -140 18 -205 l-12 -51 -78 0 c-70 0 -79 2 -85 20 -9 30 -53 79 -86 95
-68 36 -179 5 -218 -60 -55 -90 -18 -213 74 -247 l35 -12 0 -296 c0 -217 3
-299 12 -308 7 -7 42 -12 85 -12 l73 0 0 -110 0 -109 -43 -19 c-24 -11 -54
-34 -67 -52 -24 -34 -37 -110 -26 -154 9 -36 55 -87 93 -102 l33 -14 0 -113
c0 -61 4 -117 8 -124 4 -6 32 -13 62 -15 l55 -3 3 -82 3 -83 -154 0 c-165 0
-186 -6 -172 -50 6 -20 12 -20 198 -18 l192 3 0 150 0 150 -57 3 -58 3 0 94
c0 83 2 95 17 95 9 0 38 22 64 50 44 47 48 49 80 40 129 -36 213 -161 226
-335 7 -93 -10 -168 -59 -267 -99 -196 -305 -317 -523 -306 -153 8 -225 75
-262 241 -14 64 -17 230 -20 1412 -3 840 0 1390 6 1475 19 251 70 345 208 380
56 14 188 4 264 -19z m659 -643 c133 -64 234 -201 260 -351 23 -128 -22 -298
-98 -370 l-29 -28 -50 31 c-31 20 -75 36 -116 43 -60 10 -68 9 -87 -8 -40 -36
-19 -91 38 -100 69 -12 101 -26 126 -56 33 -39 41 -87 26 -162 -12 -61 -12
-62 15 -84 33 -29 37 -29 71 0 25 22 27 30 32 125 l5 101 47 51 c26 28 60 75
75 103 16 29 30 54 32 56 6 8 56 -45 89 -96 113 -174 116 -409 9 -588 -42 -70
-71 -102 -139 -157 l-49 -39 -30 53 c-68 120 -196 208 -336 231 -64 11 -73 16
-95 48 -13 19 -40 43 -60 54 l-36 20 0 213 c0 128 -4 221 -10 233 -8 15 -22
19 -61 19 l-50 0 6 35 c3 19 7 50 10 68 5 30 -5 108 -20 167 -5 22 1 30 60 69
109 71 177 174 207 314 l10 49 42 -6 c22 -4 70 -21 106 -38z m-2215 -28 c33
-159 173 -303 315 -326 23 -4 46 -12 51 -18 5 -6 21 -26 35 -44 15 -18 39 -39
55 -47 l28 -15 3 -148 3 -147 80 -5 80 -5 3 -142 c2 -135 2 -142 -18 -148 -30
-9 -79 -53 -96 -86 l-15 -29 -159 0 -160 0 0 64 0 65 42 23 c117 65 124 210
14 292 -21 16 -42 21 -91 21 -71 0 -105 -18 -140 -73 -23 -36 -30 -37 -110
-17 -160 42 -259 172 -272 356 -14 189 90 369 260 454 77 39 79 38 92 -25z
m1391 -95 c15 -23 15 -27 0 -50 -11 -17 -26 -25 -44 -25 -35 0 -52 16 -52 50
0 34 17 50 52 50 18 0 33 -8 44 -25z m-821 -155 c38 -42 -14 -102 -66 -76 -27
13 -35 45 -19 75 14 27 61 28 85 1z m815 -380 c11 -11 20 -26 20 -33 0 -24
-31 -57 -55 -57 -52 0 -74 65 -33 94 30 21 44 20 68 -4z m447 -270 l3 -195
-41 -19 c-104 -47 -124 -194 -37 -272 36 -34 63 -44 113 -44 57 0 93 18 136
69 34 40 34 40 81 31 127 -25 235 -113 278 -227 27 -72 36 -190 21 -265 -29
-136 -132 -269 -256 -328 -34 -16 -65 -30 -68 -30 -3 0 -15 33 -27 73 -26 85
-59 145 -113 204 -45 49 -138 99 -202 109 -36 5 -48 12 -64 40 -11 18 -38 44
-60 59 l-41 25 0 138 c0 94 -4 142 -12 150 -7 7 -40 12 -80 12 l-68 0 0 268 0
267 38 22 c24 13 48 39 63 67 l24 46 155 -2 155 -3 2 -195z m-1616 68 c16 -29
3 -67 -25 -74 -52 -13 -86 20 -71 67 13 40 76 44 96 7z m511 -335 c39 -36 5
-102 -47 -89 -37 9 -52 48 -31 81 19 29 51 32 78 8z m1183 -63 c41 -45 -18
-110 -70 -76 -29 19 -32 51 -8 78 21 24 55 23 78 -2z m-361 -576 c41 -40 -4
-105 -57 -85 -16 6 -29 21 -33 36 -13 50 53 86 90 49z m-820 -160 c40 -40 -7
-109 -59 -86 -32 15 -41 47 -21 77 19 29 57 33 80 9z"/>
</g>
</svg>
