<?xml version="1.0" standalone="no"?>
<!DOCTYPE svg PUBLIC "-//W3C//DTD SVG 20010904//EN"
 "http://www.w3.org/TR/2001/REC-SVG-20010904/DTD/svg10.dtd">
<svg version="1.0" xmlns="http://www.w3.org/2000/svg"
 width="2048.000000pt" height="2048.000000pt" viewBox="0 0 2048.000000 2048.000000"
 preserveAspectRatio="xMidYMid meet">
<metadata>
Created by potrace 1.16, written by Peter Selinger 2001-2019
</metadata>
<g transform="translate(0.000000,2048.000000) scale(0.100000,-0.100000)"
fill="#000000" stroke="none">
<path d="M7415 14503 c-819 -54 -1571 -386 -2132 -941 -564 -559 -909 -1285
-1004 -2117 -17 -140 -17 -575 -1 -725 60 -564 224 -1051 515 -1530 194 -319
408 -582 751 -926 419 -418 814 -739 1599 -1296 854 -606 1079 -768 1272 -913
502 -378 822 -652 1151 -987 264 -269 419 -451 585 -687 46 -66 86 -120 89
-120 3 0 43 54 88 119 308 439 795 933 1382 1401 316 252 517 399 1627 1187
519 369 880 645 1199 919 181 156 520 486 659 644 561 636 878 1285 984 2014
190 1305 -333 2589 -1360 3337 -540 394 -1188 606 -1909 625 -484 13 -843 -66
-1263 -279 -501 -253 -1014 -749 -1328 -1281 -41 -69 -76 -126 -79 -126 -3 0
-38 57 -79 126 -142 240 -342 495 -561 713 -495 494 -1066 780 -1679 840 -94
9 -386 11 -506 3z"/>
</g>
</svg>
