<?xml version="1.0" standalone="no"?>
<!DOCTYPE svg PUBLIC "-//W3C//DTD SVG 20010904//EN"
 "http://www.w3.org/TR/2001/REC-SVG-20010904/DTD/svg10.dtd">
<svg version="1.0" xmlns="http://www.w3.org/2000/svg"
 width="512.000000pt" height="512.000000pt" viewBox="0 0 512.000000 512.000000"
 preserveAspectRatio="xMidYMid meet">
<metadata>
Created by potrace 1.16, written by Peter Selinger 2001-2019
</metadata>
<g transform="translate(0.000000,512.000000) scale(0.100000,-0.100000)"
fill="#000000" stroke="none">
<path d="M1365 3709 c-1526 -1461 -1365 -1301 -1365 -1361 0 -66 38 -108 98
-108 22 0 48 3 58 7 9 3 552 518 1207 1145 654 626 1193 1138 1197 1138 4 0
543 -512 1197 -1138 655 -627 1198 -1142 1207 -1145 10 -4 36 -7 58 -7 60 0
98 42 98 107 l0 49 -127 126 c-167 164 -2431 2328 -2435 2327 -2 0 -538 -513
-1193 -1140z"/>
<path d="M3337 4454 c-52 -52 -44 -138 17 -175 29 -18 56 -19 364 -19 l332 0
0 -330 c0 -276 3 -336 15 -360 19 -37 43 -50 95 -50 52 0 76 13 95 50 13 25
15 96 15 470 l0 440 -454 0 -453 0 -26 -26z"/>
<path d="M688 2334 c-15 -8 -32 -23 -38 -34 -7 -12 -10 -399 -10 -1159 l0
-1141 750 0 750 0 0 690 0 690 420 0 420 0 0 -690 0 -690 750 0 750 0 0 1091
0 1091 -29 29 c-25 24 -38 29 -78 29 -54 0 -86 -21 -104 -67 -5 -14 -9 -412
-9 -989 l0 -964 -530 0 -530 0 0 690 0 690 -640 0 -640 0 0 -690 0 -690 -530
0 -530 0 0 1020 c0 1104 2 1056 -52 1094 -28 20 -84 20 -120 0z"/>
</g>
</svg>
