<?xml version="1.0" standalone="no"?>
<!DOCTYPE svg PUBLIC "-//W3C//DTD SVG 20010904//EN"
 "http://www.w3.org/TR/2001/REC-SVG-20010904/DTD/svg10.dtd">
<svg version="1.0" xmlns="http://www.w3.org/2000/svg"
 width="1200.000000pt" height="1200.000000pt" viewBox="0 0 1200.000000 1200.000000"
 preserveAspectRatio="xMidYMid meet">
<metadata>
Created by potrace 1.16, written by Peter Selinger 2001-2019
</metadata>
<g transform="translate(0.000000,1200.000000) scale(0.100000,-0.100000)"
fill="#000000" stroke="none">
<path d="M5775 11814 c-856 -44 -1592 -228 -2311 -578 -661 -323 -1199 -719
-1711 -1261 -616 -652 -1088 -1478 -1338 -2341 -308 -1064 -308 -2205 -1
-3266 252 -866 723 -1691 1339 -2343 493 -523 1021 -917 1648 -1231 669 -335
1366 -527 2154 -595 180 -16 709 -16 890 0 784 67 1458 252 2125 582 644 318
1175 712 1677 1244 830 879 1370 2026 1523 3233 34 277 44 431 44 742 0 518
-52 940 -175 1431 -97 390 -225 739 -409 1115 -318 653 -715 1191 -1255 1701
-940 888 -2162 1433 -3469 1548 -169 15 -597 26 -731 19z m-1315 -2841 c30 -8
73 -24 95 -35 22 -12 780 -471 1685 -1021 905 -550 1843 -1120 2084 -1266 366
-221 451 -277 505 -331 110 -109 161 -233 161 -392 0 -46 -7 -110 -15 -143
-34 -128 -124 -251 -238 -323 -73 -46 -4123 -2370 -4182 -2400 -238 -120 -546
-38 -699 186 -56 82 -84 160 -97 266 -5 48 -9 1065 -9 2486 0 1421 4 2438 9
2486 26 226 157 395 366 473 112 42 219 46 335 14z"/>
</g>
</svg>
