<?xml version="1.0" standalone="no"?>
<!DOCTYPE svg PUBLIC "-//W3C//DTD SVG 20010904//EN"
 "http://www.w3.org/TR/2001/REC-SVG-20010904/DTD/svg10.dtd">
<svg version="1.0" xmlns="http://www.w3.org/2000/svg"
 width="768.000000pt" height="768.000000pt" viewBox="0 0 768.000000 768.000000"
 preserveAspectRatio="xMidYMid meet">
<metadata>
Created by potrace 1.16, written by Peter Selinger 2001-2019
</metadata>
<g transform="translate(0.000000,768.000000) scale(0.100000,-0.100000)"
fill="#000000" stroke="none">
<path d="M3635 7034 c-359 -52 -681 -211 -929 -460 -220 -220 -367 -490 -438
-806 -20 -91 -23 -129 -23 -328 0 -199 3 -237 23 -328 111 -495 416 -889 861
-1112 358 -179 819 -211 1212 -84 540 174 943 625 1071 1196 20 91 23 129 23
328 0 199 -3 237 -23 328 -141 629 -595 1089 -1222 1239 -91 22 -132 25 -315
28 -115 2 -223 1 -240 -1z m370 -655 c121 -20 272 -82 374 -152 120 -82 246
-227 311 -357 73 -146 100 -263 100 -430 0 -58 -5 -133 -11 -166 -51 -289
-247 -552 -509 -684 -144 -72 -267 -101 -435 -101 -264 0 -504 105 -688 300
-175 186 -257 394 -257 651 0 275 99 504 299 692 82 78 132 114 226 160 186
93 383 122 590 87z"/>
<path d="M2355 3193 c-169 -21 -379 -88 -535 -169 -420 -219 -709 -593 -828
-1074 -25 -104 -25 -109 -29 -580 -4 -467 -4 -477 17 -533 78 -209 369 -267
530 -107 86 87 87 91 93 575 4 327 9 434 21 485 48 206 138 364 285 502 138
131 284 206 486 250 48 10 338 13 1445 13 1107 0 1397 -3 1445 -13 202 -44
348 -119 486 -250 149 -140 241 -304 286 -507 11 -54 16 -167 20 -485 6 -479
7 -483 93 -570 161 -160 452 -102 530 107 21 56 21 66 17 533 -4 471 -4 476
-29 580 -78 316 -218 569 -434 784 -215 216 -465 354 -784 434 l-105 26 -1490
2 c-820 1 -1503 0 -1520 -3z"/>
</g>
</svg>
