<?xml version="1.0" standalone="no"?>
<!DOCTYPE svg PUBLIC "-//W3C//DTD SVG 20010904//EN"
 "http://www.w3.org/TR/2001/REC-SVG-20010904/DTD/svg10.dtd">
<svg version="1.0" xmlns="http://www.w3.org/2000/svg"
 width="982.000000pt" height="968.000000pt" viewBox="0 0 982.000000 968.000000"
 preserveAspectRatio="xMidYMid meet">
<metadata>
Created by potrace 1.16, written by Peter Selinger 2001-2019
</metadata>
<g transform="translate(0.000000,968.000000) scale(0.100000,-0.100000)"
fill="#000000" stroke="none">
<path d="M9045 9650 c-26 -13 -474 -453 -1302 -1282 -1169 -1169 -1265 -1263
-1289 -1256 -14 4 -78 12 -142 19 -583 60 -1503 -244 -2349 -776 -535 -337
-902 -696 -1089 -1067 l-34 -67 -1062 -3 -1063 -3 -80 -23 c-174 -48 -334
-152 -440 -285 -155 -194 -210 -418 -170 -687 189 -1275 866 -2420 1900 -3211
585 -447 1310 -772 2040 -913 551 -106 1126 -119 1682 -36 1771 263 3268 1483
3896 3175 157 421 278 978 264 1204 -8 120 -27 192 -81 306 -104 220 -295 378
-541 447 l-80 23 -1022 3 c-563 1 -1023 4 -1023 6 0 2 9 32 20 67 31 102 78
304 101 434 29 167 36 446 16 581 l-16 101 1250 1249 c688 687 1263 1269 1279
1293 35 52 46 112 30 172 -10 38 -42 74 -248 283 -131 131 -251 244 -269 252
-47 20 -131 18 -178 -6z m-3695 -3151 c-559 -335 -1307 -910 -1595 -1225 l-50
-55 -178 3 -178 3 52 75 c62 90 291 320 407 410 422 329 1014 648 1532 826 69
23 129 43 135 43 5 1 -51 -35 -125 -80z m250 -664 l-615 -615 -323 0 -323 0
73 63 c317 275 861 663 1253 892 167 98 511 272 540 274 5 1 -267 -276 -605
-614z m837 110 c-98 -198 -203 -385 -331 -587 l-87 -138 -207 0 -207 0 455
455 c250 250 456 452 459 450 2 -3 -35 -84 -82 -180z m-3791 -1322 c-33 -242
-32 -466 4 -662 103 -559 468 -1030 975 -1258 657 -296 1468 -168 2085 328
352 283 729 803 1042 1437 l100 203 1097 -3 1096 -3 57 -28 c70 -34 119 -90
141 -158 22 -68 21 -101 -8 -272 -59 -349 -175 -737 -309 -1033 l-44 -96 -208
-97 c-255 -118 -817 -403 -1209 -613 -370 -198 -488 -257 -636 -318 -494 -203
-1005 -263 -1519 -180 -360 59 -681 167 -1060 357 -319 159 -567 314 -909 567
-502 372 -917 578 -1460 726 -324 88 -758 150 -1053 150 l-116 0 -16 48 c-60
183 -142 613 -133 698 12 120 103 220 218 243 24 5 455 9 958 10 l914 1 -7
-47z m612 25 c-38 -60 -102 -175 -149 -269 l-51 -104 5 107 c3 59 13 148 22
198 l17 90 85 0 85 0 -14 -22z m637 -518 l-540 -540 -3 50 c-7 113 56 342 146
532 57 122 149 276 241 405 l66 93 315 0 315 0 -540 -540z m1699 503 c-153
-205 -423 -513 -580 -662 -428 -409 -954 -691 -1288 -691 l-61 0 695 695 695
695 284 0 283 0 -28 -37z m693 -105 c-331 -637 -689 -1074 -1065 -1301 -230
-139 -554 -237 -784 -237 l-79 0 128 64 c536 269 1004 705 1572 1464 l114 152
94 0 95 0 -75 -142z"/>
</g>
</svg>
